<!--?xml version="1.0" encoding="UTF-8"?-->
<svg xmlns="http://www.w3.org/2000/svg" width="240" height="41" viewBox="0 0 240 41" fill="none">
  <g clip-path="url(#af)">
    <path fill="#FFFFFF" d="M215 32.08V20.32q-.01-8.9 8.9-8.92h7.29q8.8-.01 8.81 8.92v8.32h-18.42v4q.01 2.59 2.59 2.6h14.71v3.56L235.9 41h-12c-5.9 0-8.9-2.96-8.9-8.92m6.58-8.56h11.84v-3.76q-.01-2.59-2.6-2.6h-6.69q-2.58.01-2.6 2.6v3.76zM193.18 41V15.08q2.06-3.67 7.74-3.68h5.9l3 2.2v3.56h-7.34c-1.28 0-2.15.32-2.71.96V41zm-23.2 0c-5.9 0-8.89-2.92-8.89-8.8q-.01-8.81 8.9-8.8h8.64v-3.68q0-2.59-2.59-2.6h-11.92v-3.56l2.91-2.2h9.33q8.8-.01 8.81 8.92v20.68h-15.23zm-2.27-8.36q.01 2.59 2.6 2.6h8.36v-6.72h-8.37q-2.58 0-2.6 2.52v1.6m-34.25-.56V20.32q-.01-8.9 8.89-8.92h10.6l3 2.2v3.56h-13.32q-2.59.01-2.6 2.6v12.92q.01 2.59 2.6 2.6h13.32v3.56l-3 2.2h-10.6c-5.9 0-8.9-2.96-8.9-8.92zM110.49 41c-5.9 0-8.9-2.92-8.9-8.8q0-8.81 8.9-8.8h8.65v-3.68q0-2.59-2.59-2.6h-11.92v-3.56l2.91-2.2h9.33q8.8-.01 8.81 8.92v20.68h-15.23zm-2.31-8.36q.01 2.59 2.59 2.6h8.37v-6.72h-8.37q-2.58 0-2.6 2.52v1.6M70.1 12.44l.68-1h5.66l7.41 23.84h.84l7.42-23.84h5.66l.68 1L89.24 41h-9.9zM39.7 32.08V20.32q-.01-8.9 8.9-8.92h7.85q8.8-.01 8.81 8.92v11.76q-.01 8.9-8.8 8.92H48.6c-5.9 0-8.9-2.96-8.9-8.92m6.58.56q.01 2.59 2.6 2.6h7.25q2.59-.01 2.6-2.6V19.72q-.01-2.59-2.6-2.6H48.9q-2.59.01-2.6 2.6zM31.46 6.6v22.72l-.96 1.56-5.7-8.32V0h1.56z"></path>
    <path fill="#BEE875" d="M31.5 36.56V41h-5.98L6.66 12.28V41H0V8.52a5 5 0 0 1 4.98-5h3.87l22.61 33z"></path>
  </g>
  <defs>
    <clipPath id="af">
      <path fill="#FFFFFF" d="M0 0h240v41H0z"></path>
    </clipPath>
  </defs>
</svg>